<svg xmlns="http://www.w3.org/2000/svg" width="49" height="50" viewBox="0 0 49 50">
  <path fill="#FF3B81" d="M425.02727,50.4802105 L425.02727,50.7922878 L421.777309,50.7922878 L421.777309,44.9016108 L421.676517,45.2274751 L418.568563,44.2883224 L420.324317,38.6123958 L420.108181,38.9291466 L417.41384,37.1329791 L420.780516,32.1997986 L420.459439,32.4568446 L418.414172,29.9605772 L423.259064,26.0829212 L422.639962,26.3178846 L421.475289,23.319104 L427.262066,21.1236622 L426.585759,21.1703979 L426.359054,17.966144 L432.417695,17.5474277 L431.870705,17.4226085 L432.601759,14.2928629 L438.389304,15.6134251 L438.024605,15.4053814 L439.649615,12.623641 L444.697359,15.5039936 L444.500883,15.2957863 L446.877752,13.1051525 L450.808583,17.2713018 L450.724885,17.1015112 L453.645907,15.6934365 L456.167592,20.8033829 L456.144658,20.6603952 L459.354602,20.1579169 L460.300338,26.0595534 L460.367603,25.6394 L463.577547,26.1419249 L462.617744,32.1319151 L462.855005,31.6508885 L465.776027,33.0590333 L463.07146,38.539605 L463.46666,38.1207368 L465.843529,40.3113531 L461.641627,44.7649091 L462.150314,44.4745639 L463.775324,47.2563861 L458.493392,50.2703675 L459.024777,50.1490885 L459.75583,53.2788575 L453.919579,54.6105896 L454.369276,54.6416688 L454.142536,57.8458642 L448.300493,57.4420683 L448.598163,57.5550517 L447.43349,60.5538441 L441.841238,58.4321628 L442.194589,58.7150303 L440.149318,61.2112977 L435.533538,57.517079 L435.76146,57.8508883 L433.06706,59.6470558 L429.767626,54.8123707 L429.865746,55.129472 L426.756121,56.069092 L425.02727,50.4802105 Z M429.705233,43.8972524 L431.166532,43.4557443 L432.302203,47.1271 L433.565735,46.2847944 L435.725182,49.449034 L436.689674,48.2718753 L439.682466,50.6670716 L440.217774,49.2887991 L443.824256,50.6570622 L443.929956,49.1639757 L447.789114,49.4306974 L447.441887,47.9440877 L451.225046,47.080838 L450.441232,45.7389864 L453.818101,43.8120461 L452.661528,42.7460845 L455.32905,39.9188849 L453.906014,39.2328608 L455.621555,35.7564785 L454.065075,35.5128037 L454.676808,31.6954281 L453.188497,31.9283365 L452.577019,28.112559 L451.236535,28.7587136 L449.533335,25.3073465 L448.440761,26.3143366 L445.805238,23.5210092 L445.051126,24.8119557 L441.714851,22.908239 L441.370092,24.3842253 L437.616889,23.5278307 L437.725823,25.0679699 L433.873133,25.3342374 L434.442824,26.8009881 L430.815177,28.1772418 L431.7912,29.3685315 L428.74566,31.8060365 L430.031073,32.6628936 L427.835423,35.8801244 L429.314917,36.3271839 L428.168046,40.0347082 L429.705233,40.0347082 L429.705233,43.8972524 Z" transform="matrix(-1 0 0 1 466.257 -12)"/>
</svg>
